<svg width="143" height="159" viewBox="0 0 143 159" fill="none" xmlns="http://www.w3.org/2000/svg">
<path fill-rule="evenodd" clip-rule="evenodd" d="M107.457 149.805C107.457 149.805 110.415 149.167 111.376 150.913C112.337 152.658 112.08 153.705 112.08 153.705C112.545 154.635 112.668 154.688 113.077 154.867C113.205 154.923 113.361 154.991 113.564 155.102C114.246 155.474 116.295 155.833 117.235 155.966C118.594 156.099 121.503 156.126 126.012 155.966C130.521 155.806 133.723 155.434 134.292 155.168C135.478 155.009 136.022 153.196 136.146 152.309C136.205 151.618 136.467 150.957 136.591 150.713C136.679 150.582 136.783 150.427 136.898 150.257C136.233 150.284 135.563 150.284 134.895 150.264C132.109 150.183 129.157 149.75 126.376 149.266C125.292 149.078 124.25 148.885 123.248 148.699C121.613 148.396 120.084 148.113 118.655 147.901C115.224 147.392 111.633 147.696 108.572 148.398C108.109 148.505 107.664 148.619 107.239 148.738C107.311 149.096 107.383 149.451 107.457 149.805ZM135.011 146.266C137.247 146.331 139.153 146.132 140.653 145.601C143.52 122.893 143.834 89.3389 141.189 69.6768L141.091 69.4318C140.477 69.5933 139.842 69.7395 139.19 69.8681C135.779 70.5417 131.733 70.7714 127.801 70.0637C126.328 69.7985 124.689 69.443 123.008 69.0784C122.022 68.8646 121.022 68.6477 120.033 68.444C117.304 67.8822 114.565 67.4 112.04 67.2482C109.677 67.1062 107.619 67.2628 105.984 67.8345C102.783 89.3574 102.307 120.427 106.506 144.792C106.89 144.688 107.281 144.591 107.677 144.5C111.117 143.71 115.219 143.348 119.242 143.945C120.729 144.165 122.394 144.473 124.091 144.787C125.08 144.97 126.08 145.155 127.062 145.325C129.799 145.802 132.521 146.194 135.011 146.266ZM139.962 66.6203L137.258 59.8881C137.555 59.7817 137.703 59.2675 137.74 59.0237C137.728 59.0015 137.71 58.7178 137.74 57.7604C137.77 56.8029 137.209 56.3419 136.924 56.2311C135.552 55.3667 126.727 54.8348 123.909 54.7018C121.091 54.5689 111.895 55.6327 110.968 56.1646C110.226 56.5902 110.09 57.0512 110.115 57.2285C110.128 57.7382 110.145 58.8375 110.115 59.1567C110.086 59.4758 110.399 59.8659 110.56 60.021C110.262 61.0471 109.749 62.82 109.345 64.2241C110.284 64.1797 111.243 64.1954 112.206 64.2532C114.952 64.4183 117.862 64.9368 120.624 65.5053C121.689 65.7246 122.721 65.9486 123.717 66.1647C125.351 66.5195 126.889 66.8533 128.319 67.1108C131.809 67.739 135.47 67.5415 138.596 66.9244C139.069 66.8311 139.524 66.7291 139.962 66.6203Z" fill="#075985"/>
<path d="M57.1746 158.762C49.8891 158.762 43.854 156.864 39.0695 153.069C34.3937 149.273 30.5334 143.798 27.4887 136.645C24.5527 129.491 21.8886 120.805 19.4964 110.586L1.22812 31.9714C-0.511716 24.672 -0.402976 18.3215 1.55434 12.92C3.62039 7.37241 7.26316 3.57672 12.4827 1.53288C17.2672 -0.364966 21.6168 0.072998 25.5314 2.84677C29.446 5.47456 32.1101 10.0002 33.5238 16.4237L51.3027 92.1916C53.1513 100.367 55.4892 105.841 58.3164 108.615C61.2523 111.243 64.4058 111.827 67.7767 110.367C71.2564 109.053 73.4856 106.425 74.4642 102.484C75.4429 98.3961 75.171 92.2646 73.6487 84.0893C71.1477 69.4904 69.4622 58.0304 68.5923 49.709C67.7224 41.3877 67.2874 34.8182 67.2874 30.0006C67.2874 21.8253 68.9185 14.8178 72.1807 8.97828C75.5516 2.99276 80.7167 0 87.6761 0C94.5267 0 99.4743 2.99276 102.519 8.97828C105.672 14.8178 107.249 21.8253 107.249 30.0006C107.249 34.8182 106.76 39.7818 105.781 44.8914C104.803 50.001 103.661 55.2566 102.356 60.6581L87.8392 119.564C85.8819 127.448 83.7071 134.382 81.3148 140.368C79.0313 146.207 75.9866 150.733 72.1807 153.944C68.4835 157.156 63.4815 158.762 57.1746 158.762Z" fill="#075985"/>
</svg>
